<svg width="108" height="108" viewBox="0 0 108 108" fill="none" xmlns="http://www.w3.org/2000/svg">
<path d="M78.075 86.2875L93.9375 70.3125C94.8375 69.4125 95.907 68.9625 97.146 68.9625C98.385 68.9625 99.453 69.4125 100.35 70.3125C101.247 71.2125 101.697 72.282 101.7 73.521C101.703 74.76 101.253 75.828 100.35 76.725L81.225 95.85C80.325 96.75 79.257 97.2 78.021 97.2C76.785 97.2 75.7155 96.75 74.8125 95.85L65.25 86.2875C64.425 85.3875 64.0125 84.3195 64.0125 83.0835C64.0125 81.8475 64.4625 80.778 65.3625 79.875C66.2625 78.972 67.3125 78.522 68.5125 78.525C69.7125 78.528 70.7625 78.978 71.6625 79.875L78.075 86.2875ZM36 58.5C37.275 58.5 38.3445 58.068 39.2085 57.204C40.0725 56.34 40.503 55.272 40.5 54C40.497 52.728 40.065 51.66 39.204 50.796C38.343 49.932 37.275 49.5 36 49.5C34.725 49.5 33.657 49.932 32.796 50.796C31.935 51.66 31.503 52.728 31.5 54C31.497 55.272 31.929 56.3415 32.796 57.2085C33.663 58.0755 34.731 58.506 36 58.5ZM36 40.5C37.275 40.5 38.3445 40.068 39.2085 39.204C40.0725 38.34 40.503 37.272 40.5 36C40.497 34.728 40.065 33.66 39.204 32.796C38.343 31.932 37.275 31.5 36 31.5C34.725 31.5 33.657 31.932 32.796 32.796C31.935 33.66 31.503 34.728 31.5 36C31.497 37.272 31.929 38.3415 32.796 39.2085C33.663 40.0755 34.731 40.506 36 40.5ZM72 58.5C73.275 58.5 74.3445 58.068 75.2085 57.204C76.0725 56.34 76.503 55.272 76.5 54C76.497 52.728 76.065 51.66 75.204 50.796C74.343 49.932 73.275 49.5 72 49.5H54C52.725 49.5 51.657 49.932 50.796 50.796C49.935 51.66 49.503 52.728 49.5 54C49.497 55.272 49.929 56.3415 50.796 57.2085C51.663 58.0755 52.731 58.506 54 58.5H72ZM72 40.5C73.275 40.5 74.3445 40.068 75.2085 39.204C76.0725 38.34 76.503 37.272 76.5 36C76.497 34.728 76.065 33.66 75.204 32.796C74.343 31.932 73.275 31.5 72 31.5H54C52.725 31.5 51.657 31.932 50.796 32.796C49.935 33.66 49.503 34.728 49.5 36C49.497 37.272 49.929 38.3415 50.796 39.2085C51.663 40.0755 52.731 40.506 54 40.5H72ZM22.5 94.5C20.025 94.5 17.907 93.6195 16.146 91.8585C14.385 90.0975 13.503 87.978 13.5 85.5V22.5C13.5 20.025 14.382 17.907 16.146 16.146C17.91 14.385 20.028 13.503 22.5 13.5H85.5C87.975 13.5 90.0945 14.382 91.8585 16.146C93.6225 17.91 94.503 20.028 94.5 22.5V53.4375C94.5 54.6375 94.257 55.782 93.771 56.871C93.285 57.96 92.628 58.9155 91.8 59.7375L78.075 73.575L74.8125 70.3125C73.0875 68.5875 70.9695 67.725 68.4585 67.725C65.9475 67.725 63.828 68.5875 62.1 70.3125L55.8 76.725C54.9 77.625 54.225 78.6195 53.775 79.7085C53.325 80.7975 53.1 81.903 53.1 83.025C53.1 84.075 53.25 85.032 53.55 85.896C53.85 86.76 54.3 87.603 54.9 88.425C55.8 89.7 55.9695 91.032 55.4085 92.421C54.8475 93.81 53.853 94.503 52.425 94.5H22.5Z" fill="black"/>
</svg>
