<svg width="102" height="102" viewBox="0 0 102 102" fill="none" xmlns="http://www.w3.org/2000/svg">
<path d="M29.75 55.25C31.8944 55.2493 33.9599 56.0592 35.5323 57.5174C37.1047 58.9755 38.0679 60.9741 38.2288 63.1125L38.25 63.75V76.5C38.2507 78.6444 37.4408 80.7099 35.9826 82.2823C34.5245 83.8548 32.5259 84.8179 30.3875 84.9788L29.75 85H17C14.8556 85.0007 12.7901 84.1908 11.2177 82.7326C9.64525 81.2745 8.68208 79.2759 8.52125 77.1375L8.5 76.5V63.75C8.49932 61.6055 9.30923 59.5401 10.7674 57.9677C12.2255 56.3952 14.2241 55.4321 16.3625 55.2713L17 55.25H29.75ZM68 72.25C69.0832 72.2512 70.1251 72.666 70.9128 73.4096C71.7005 74.1532 72.1745 75.1696 72.238 76.2509C72.3015 77.3323 71.9496 78.3971 71.2544 79.2278C70.5591 80.0585 69.5729 80.5923 68.4973 80.7203L68 80.75H51C49.9168 80.7488 48.8749 80.334 48.0872 79.5904C47.2995 78.8468 46.8255 77.8305 46.762 76.7491C46.6985 75.6677 47.0504 74.6029 47.7456 73.7722C48.4409 72.9415 49.4271 72.4077 50.5028 72.2798L51 72.25H68ZM85 55.25C86.1272 55.25 87.2082 55.6978 88.0052 56.4948C88.8022 57.2918 89.25 58.3728 89.25 59.5C89.25 60.6272 88.8022 61.7082 88.0052 62.5052C87.2082 63.3022 86.1272 63.75 85 63.75H51C49.8728 63.75 48.7918 63.3022 47.9948 62.5052C47.1978 61.7082 46.75 60.6272 46.75 59.5C46.75 58.3728 47.1978 57.2918 47.9948 56.4948C48.7918 55.6978 49.8728 55.25 51 55.25H85ZM29.75 12.75C32.0043 12.75 34.1663 13.6455 35.7604 15.2396C37.3545 16.8337 38.25 18.9957 38.25 21.25V34C38.25 36.2543 37.3545 38.4163 35.7604 40.0104C34.1663 41.6045 32.0043 42.5 29.75 42.5H17C14.7457 42.5 12.5837 41.6045 10.9896 40.0104C9.39553 38.4163 8.5 36.2543 8.5 34V21.25C8.5 18.9957 9.39553 16.8337 10.9896 15.2396C12.5837 13.6455 14.7457 12.75 17 12.75H29.75ZM68 29.75C69.0832 29.7512 70.1251 30.166 70.9128 30.9096C71.7005 31.6532 72.1745 32.6695 72.238 33.7509C72.3015 34.8323 71.9496 35.8971 71.2544 36.7278C70.5591 37.5585 69.5729 38.0923 68.4973 38.2202L68 38.25H51C49.9168 38.2488 48.8749 37.834 48.0872 37.0904C47.2995 36.3468 46.8255 35.3305 46.762 34.2491C46.6985 33.1677 47.0504 32.1029 47.7456 31.2722C48.4409 30.4415 49.4271 29.9077 50.5028 29.7798L51 29.75H68ZM85 12.75C86.0832 12.7512 87.1251 13.166 87.9128 13.9096C88.7005 14.6532 89.1745 15.6696 89.238 16.7509C89.3015 17.8323 88.9496 18.8971 88.2544 19.7278C87.5591 20.5585 86.5729 21.0923 85.4973 21.2203L85 21.25H51C49.9168 21.2488 48.8749 20.834 48.0872 20.0904C47.2995 19.3468 46.8255 18.3304 46.762 17.2491C46.6985 16.1677 47.0504 15.1029 47.7456 14.2722C48.4409 13.4415 49.4271 12.9077 50.5028 12.7797L51 12.75H85Z" fill="black"/>
</svg>
