<svg width="60" height="60" viewBox="0 0 60 60" fill="none" xmlns="http://www.w3.org/2000/svg">
<path opacity="0.5" d="M55 25H5V47.5C5 49.4891 5.79018 51.3968 7.1967 52.8033C8.60322 54.2098 10.5109 55 12.5 55H47.5C49.4891 55 51.3968 54.2098 52.8033 52.8033C54.2098 51.3968 55 49.4891 55 47.5V25ZM17.5 20C16.837 20 16.2011 19.7366 15.7322 19.2678C15.2634 18.7989 15 18.163 15 17.5V7.5C15 6.83696 15.2634 6.20107 15.7322 5.73223C16.2011 5.26339 16.837 5 17.5 5C18.163 5 18.7989 5.26339 19.2678 5.73223C19.7366 6.20107 20 6.83696 20 7.5V17.5C20 18.163 19.7366 18.7989 19.2678 19.2678C18.7989 19.7366 18.163 20 17.5 20ZM42.5 20C41.837 20 41.2011 19.7366 40.7322 19.2678C40.2634 18.7989 40 18.163 40 17.5V7.5C40 6.83696 40.2634 6.20107 40.7322 5.73223C41.2011 5.26339 41.837 5 42.5 5C43.163 5 43.7989 5.26339 44.2678 5.73223C44.7366 6.20107 45 6.83696 45 7.5V17.5C45 18.163 44.7366 18.7989 44.2678 19.2678C43.7989 19.7366 43.163 20 42.5 20Z" fill="black"/>
<path d="M47.5 10H45V17.5C45 18.163 44.7366 18.7989 44.2678 19.2678C43.7989 19.7366 43.163 20 42.5 20C41.837 20 41.2011 19.7366 40.7322 19.2678C40.2634 18.7989 40 18.163 40 17.5V10H20V17.5C20 18.163 19.7366 18.7989 19.2678 19.2678C18.7989 19.7366 18.163 20 17.5 20C16.837 20 16.2011 19.7366 15.7322 19.2678C15.2634 18.7989 15 18.163 15 17.5V10H12.5C10.5109 10 8.60322 10.7902 7.1967 12.1967C5.79018 13.6032 5 15.5109 5 17.5V25H55V17.5C55 15.5109 54.2098 13.6032 52.8033 12.1967C51.3968 10.7902 49.4891 10 47.5 10Z" fill="black"/>
</svg>
