<svg width="324" height="38" viewBox="0 0 324 38" fill="none" xmlns="http://www.w3.org/2000/svg">
<path d="M0.64 37.096C0.64 32.68 0.624 28.536 0.592 24.664C0.592 20.76 0.576 17.224 0.544 14.056C0.544 10.888 0.528 8.184 0.496 5.944C0.464 3.704 0.432 2.056 0.4 0.999997C2.288 0.743999 4 0.551999 5.536 0.423999C7.104 0.295999 8.576 0.231998 9.952 0.231998C13.728 0.231998 16.976 0.695998 19.696 1.624C22.448 2.52 24.56 3.832 26.032 5.56C27.504 7.256 28.24 9.288 28.24 11.656C28.24 14.152 27.424 16.392 25.792 18.376C24.192 20.36 21.952 21.944 19.072 23.128C16.224 24.312 12.928 24.968 9.184 25.096C9.216 27.08 9.232 29.064 9.232 31.048C9.264 33.032 9.28 34.984 9.28 36.904C8.192 36.968 6.944 37.016 5.536 37.048C4.16 37.08 2.528 37.096 0.64 37.096ZM8.512 4.024C8.64 5.784 8.752 8.184 8.848 11.224C8.976 14.264 9.072 17.592 9.136 21.208C15.952 20.28 19.36 17.432 19.36 12.664C19.36 10.008 18.384 7.912 16.432 6.376C14.48 4.808 11.84 4.024 8.512 4.024ZM41.3354 37.24C38.8074 37.24 36.5194 36.648 34.4714 35.464C32.4234 34.28 30.7914 32.68 29.5754 30.664C28.3914 28.648 27.7994 26.408 27.7994 23.944C27.7994 21.992 28.1674 20.168 28.9034 18.472C29.6394 16.776 30.6634 15.288 31.9754 14.008C33.3194 12.696 34.8554 11.688 36.5834 10.984C38.3114 10.248 40.1514 9.88 42.1034 9.88C44.6314 9.88 46.9194 10.472 48.9674 11.656C51.0154 12.84 52.6314 14.44 53.8154 16.456C55.0314 18.44 55.6394 20.68 55.6394 23.176C55.6394 25.128 55.2714 26.952 54.5354 28.648C53.7994 30.344 52.7594 31.848 51.4154 33.16C50.1034 34.44 48.5834 35.448 46.8554 36.184C45.1594 36.888 43.3194 37.24 41.3354 37.24ZM42.7274 33.352C44.4234 33.352 45.7514 32.632 46.7114 31.192C47.6714 29.72 48.1514 27.688 48.1514 25.096C48.1514 22.92 47.8314 20.984 47.1914 19.288C46.5514 17.592 45.6714 16.248 44.5514 15.256C43.4314 14.264 42.1514 13.768 40.7114 13.768C39.0154 13.768 37.6874 14.504 36.7274 15.976C35.7674 17.416 35.2874 19.432 35.2874 22.024C35.2874 24.168 35.6074 26.104 36.2474 27.832C36.8874 29.528 37.7674 30.872 38.8874 31.864C40.0394 32.856 41.3194 33.352 42.7274 33.352ZM59.5105 7V0.519998H67.6705V7H59.5105ZM59.7025 37.096C59.6705 36.04 59.6385 34.616 59.6065 32.824C59.5745 31 59.5425 28.92 59.5105 26.584C59.5105 24.216 59.4945 21.688 59.4625 19C59.4625 16.312 59.4625 13.56 59.4625 10.744C60.9025 10.744 62.4065 10.76 63.9745 10.792C65.5745 10.824 66.8225 10.872 67.7185 10.936C67.7185 13.272 67.7025 15.72 67.6705 18.28C67.6705 20.84 67.6545 23.336 67.6225 25.768C67.6225 28.168 67.6065 30.344 67.5745 32.296C67.5425 34.248 67.5105 35.784 67.4785 36.904C66.0065 36.968 64.5985 37.016 63.2545 37.048C61.9105 37.08 60.7265 37.096 59.7025 37.096ZM73.2738 37.096C73.2418 36.072 73.2098 34.664 73.1777 32.872C73.1458 31.048 73.1138 28.952 73.0818 26.584C73.0818 24.184 73.0658 21.608 73.0338 18.856C73.0338 16.072 73.0338 13.208 73.0338 10.264C73.7378 10.264 74.6018 10.28 75.6258 10.312C76.6498 10.312 77.6738 10.328 78.6978 10.36C79.7538 10.392 80.6178 10.424 81.2898 10.456C81.2898 11.256 81.2898 12.072 81.2898 12.904C84.0098 10.888 86.7778 9.88 89.5938 9.88C92.1858 9.88 94.2818 10.792 95.8818 12.616C97.4818 14.44 98.6338 17.352 99.3378 21.352C100.074 25.352 100.442 30.6 100.442 37.096C99.7058 37.096 98.8258 37.08 97.8018 37.048C96.7778 37.048 95.7698 37.032 94.7778 37C93.7858 36.968 92.9218 36.936 92.1858 36.904C92.1858 31.24 92.0258 26.712 91.7058 23.32C91.3858 19.928 90.8578 17.48 90.1218 15.976C89.3858 14.472 88.3938 13.72 87.1458 13.72C86.1218 13.72 85.0818 14.152 84.0258 15.016C82.9698 15.88 82.0578 17.016 81.2898 18.424C81.2578 21.144 81.2258 23.72 81.1938 26.152C81.1938 28.584 81.1778 30.744 81.1458 32.632C81.1138 34.488 81.0818 35.912 81.0498 36.904C80.0578 36.936 78.8418 36.968 77.4018 37C75.9938 37.064 74.6178 37.096 73.2738 37.096ZM107.105 37.096C107.073 36.424 107.041 35.352 107.009 33.88C107.009 32.376 106.993 30.584 106.961 28.504C106.961 26.424 106.945 24.168 106.913 21.736C106.913 19.304 106.913 16.808 106.913 14.248H101.681L101.393 9.832H106.865C106.865 6.6 106.865 3.544 106.865 0.663999C108.049 0.663999 109.425 0.679998 110.993 0.711998C112.593 0.743998 113.969 0.791998 115.121 0.855999C115.121 3.608 115.121 6.6 115.121 9.832H120.593L120.305 14.248H115.073C115.073 16.744 115.057 19.208 115.025 21.64C115.025 24.04 115.009 26.264 114.977 28.312C114.977 30.36 114.961 32.136 114.929 33.64C114.929 35.144 114.913 36.232 114.881 36.904C113.793 36.968 112.593 37.016 111.281 37.048C109.969 37.08 108.577 37.096 107.105 37.096ZM159.49 37.24C156.994 37.24 154.69 36.792 152.578 35.896C150.498 34.968 148.674 33.672 147.106 32.008C145.57 30.344 144.37 28.392 143.506 26.152C142.642 23.88 142.21 21.416 142.21 18.76C142.21 16.104 142.642 13.656 143.506 11.416C144.37 9.144 145.57 7.176 147.106 5.512C148.674 3.848 150.498 2.568 152.578 1.672C154.69 0.743998 156.994 0.279998 159.49 0.279998C161.986 0.279998 164.29 0.743998 166.402 1.672C168.514 2.568 170.338 3.848 171.874 5.512C173.442 7.176 174.642 9.144 175.474 11.416C176.338 13.656 176.77 16.104 176.77 18.76C176.77 21.416 176.338 23.88 175.474 26.152C174.642 28.392 173.442 30.344 171.874 32.008C170.338 33.672 168.514 34.968 166.402 35.896C164.29 36.792 161.986 37.24 159.49 37.24ZM160.498 33.208C162.066 33.208 163.426 32.68 164.578 31.624C165.73 30.568 166.626 29.08 167.266 27.16C167.906 25.24 168.226 23 168.226 20.44C168.226 17.4 167.794 14.664 166.93 12.232C166.066 9.8 164.898 7.88 163.426 6.472C161.954 5.032 160.306 4.312 158.482 4.312C156.946 4.312 155.586 4.84 154.402 5.896C153.25 6.952 152.354 8.44 151.714 10.36C151.074 12.28 150.754 14.52 150.754 17.08C150.754 20.088 151.186 22.824 152.05 25.288C152.914 27.72 154.082 29.656 155.554 31.096C157.026 32.504 158.674 33.208 160.498 33.208ZM182.759 37.096C182.759 32.04 182.807 27.64 182.903 23.896C182.999 20.152 183.207 16.936 183.527 14.248H179.447L179.159 9.832H184.199C184.775 7.208 185.591 5.224 186.647 3.88C187.703 2.504 189.079 1.56 190.775 1.048C192.503 0.503999 194.631 0.167998 197.159 0.0399981L196.967 4.12C195.463 4.12 194.295 4.504 193.463 5.272C192.663 6.04 192.071 7.56 191.687 9.832H197.399L197.111 14.248H191.207C191.111 15.688 191.047 17.336 191.015 19.192C190.983 21.048 190.967 23.144 190.967 25.48C190.967 27.528 190.983 29.496 191.015 31.384C191.047 33.272 191.095 35.112 191.159 36.904C189.815 36.936 188.391 36.968 186.887 37C185.383 37.064 184.007 37.096 182.759 37.096ZM233.822 37.24C232.062 37.24 230.238 37 228.35 36.52C226.494 36.04 224.718 35.384 223.022 34.552C221.358 33.688 219.95 32.712 218.798 31.624C219.534 30.568 220.35 29.512 221.246 28.456C222.142 27.368 223.134 26.296 224.222 25.24C225.47 26.584 226.846 27.832 228.35 28.984C229.854 30.104 231.358 31.016 232.862 31.72C234.398 32.424 235.806 32.776 237.086 32.776C238.238 32.776 239.262 32.472 240.158 31.864C241.086 31.224 241.55 30.312 241.55 29.128C241.55 28.008 241.118 27.016 240.254 26.152C239.39 25.256 238.254 24.44 236.846 23.704C235.47 22.936 233.998 22.184 232.43 21.448C231.054 20.808 229.694 20.136 228.35 19.432C227.006 18.728 225.774 17.96 224.654 17.128C223.566 16.296 222.686 15.368 222.014 14.344C221.374 13.288 221.054 12.104 221.054 10.792C221.054 9.48 221.39 8.2 222.062 6.952C222.766 5.704 223.742 4.584 224.99 3.592C226.238 2.568 227.71 1.768 229.406 1.192C231.134 0.583998 233.022 0.279998 235.07 0.279998C237.406 0.279998 239.758 0.679998 242.126 1.48C244.526 2.28 246.606 3.432 248.366 4.936C247.79 6.024 247.006 7.096 246.014 8.152C245.054 9.208 244.11 10.104 243.182 10.84C241.23 8.984 239.294 7.432 237.374 6.184C235.454 4.904 233.646 4.264 231.95 4.264C230.702 4.264 229.758 4.584 229.118 5.224C228.51 5.832 228.206 6.488 228.206 7.192C228.206 7.96 228.558 8.664 229.262 9.304C229.966 9.944 230.894 10.568 232.046 11.176C233.198 11.784 234.462 12.408 235.838 13.048C237.278 13.72 238.734 14.44 240.206 15.208C241.71 15.976 243.086 16.856 244.334 17.848C245.614 18.808 246.638 19.912 247.406 21.16C248.174 22.408 248.558 23.832 248.558 25.432C248.558 27.032 248.158 28.552 247.358 29.992C246.59 31.4 245.518 32.648 244.142 33.736C242.798 34.824 241.23 35.688 239.438 36.328C237.678 36.936 235.806 37.24 233.822 37.24ZM259.953 37.24C257.233 37.24 255.009 36.584 253.281 35.272C251.585 33.928 250.737 32.184 250.737 30.04C250.737 28.088 251.441 26.28 252.849 24.616C254.289 22.952 256.273 21.544 258.801 20.392C261.329 19.208 264.225 18.392 267.489 17.944C266.337 15.128 264.753 13.72 262.737 13.72C261.521 13.72 259.953 14.184 258.033 15.112C256.113 16.04 254.161 17.256 252.177 18.76L250.737 13.96C255.505 11.24 260.017 9.88 264.273 9.88C267.601 9.88 270.273 10.792 272.289 12.616C274.305 14.408 275.777 17.288 276.705 21.256C277.633 25.192 278.097 30.408 278.097 36.904C277.489 36.936 276.401 36.968 274.833 37C273.297 37.064 271.633 37.096 269.841 37.096C269.841 36.072 269.825 35.064 269.793 34.072C266.497 36.184 263.217 37.24 259.953 37.24ZM258.657 29.704C258.657 30.696 259.041 31.48 259.809 32.056C260.609 32.632 261.665 32.92 262.977 32.92C265.281 32.92 267.505 31.928 269.649 29.944C269.457 26.552 269.089 23.688 268.545 21.352C267.297 21.608 266.081 22.024 264.897 22.6C263.745 23.176 262.689 23.864 261.729 24.664C260.801 25.432 260.049 26.264 259.473 27.16C258.929 28.024 258.657 28.872 258.657 29.704ZM290.187 0.663999C290.123 2.488 290.075 4.28 290.043 6.04C290.011 7.8 289.995 9.432 289.995 10.936C289.995 15.992 290.139 20.136 290.427 23.368C290.747 26.568 291.227 29.032 291.867 30.76C292.507 32.456 293.355 33.576 294.411 34.12L291.051 37.96C289.323 37.768 287.867 37.208 286.683 36.28C285.531 35.32 284.603 33.896 283.899 32.008C283.195 30.088 282.683 27.608 282.363 24.568C282.075 21.528 281.931 17.816 281.931 13.432C281.931 11.608 281.947 9.624 281.979 7.48C282.043 5.304 282.107 3.096 282.171 0.855999C283.099 0.791998 284.203 0.743998 285.483 0.711998C286.763 0.679998 288.331 0.663999 290.187 0.663999ZM310.026 37.24C307.434 37.24 305.098 36.648 303.018 35.464C300.97 34.248 299.338 32.616 298.122 30.568C296.938 28.488 296.346 26.136 296.346 23.512C296.346 20.888 296.922 18.552 298.074 16.504C299.258 14.456 300.858 12.84 302.874 11.656C304.922 10.472 307.242 9.88 309.834 9.88C312.266 9.88 314.442 10.424 316.362 11.512C318.314 12.568 319.882 14.056 321.066 15.976C322.282 17.896 323.002 20.152 323.226 22.744L304.17 26.296C304.778 28.376 305.738 30.072 307.05 31.384C308.362 32.664 309.834 33.304 311.466 33.304C312.97 33.304 314.458 32.792 315.93 31.768C317.402 30.712 318.538 29.368 319.338 27.736L322.746 30.616C321.178 32.728 319.29 34.36 317.082 35.512C314.874 36.664 312.522 37.24 310.026 37.24ZM303.546 21.592C303.546 21.784 303.546 21.944 303.546 22.072L314.73 20.536C314.506 18.488 313.85 16.84 312.762 15.592C311.674 14.344 310.346 13.72 308.778 13.72C307.146 13.72 305.866 14.424 304.938 15.832C304.01 17.208 303.546 19.128 303.546 21.592Z" fill="#2A7DF1"/>
</svg>
