<svg width="113" height="113" viewBox="0 0 113 113" fill="none" xmlns="http://www.w3.org/2000/svg">
<path fill-rule="evenodd" clip-rule="evenodd" d="M56.5917 14.125C45.9579 14.125 36.2705 17.6374 30.5381 20.5071C30.0202 20.7661 29.5368 21.0188 29.088 21.2652C28.1981 21.7501 27.4401 22.2021 26.8374 22.6L33.3584 32.2003L36.4283 33.4221C48.4251 39.4747 64.5135 39.4747 76.5127 33.4221L79.9968 31.6141L86.1624 22.6C84.8838 21.7692 83.556 21.0169 82.1862 20.3471C76.4821 17.5079 67.0254 14.125 56.5941 14.125M41.4285 24.9918C39.1199 24.5574 36.8393 23.9851 34.5991 23.278C39.9689 20.8932 47.9707 18.3625 56.5941 18.3625C62.5666 18.3625 68.2142 19.5773 72.8849 21.1169C67.4114 21.8867 61.5708 23.1932 56.0055 24.8011C51.6268 26.0677 46.5088 25.9311 41.4285 24.9918ZM79.001 36.9133L78.4219 37.2052C65.2244 43.8628 47.7188 43.8628 34.5214 37.2052L33.9729 36.9275C14.1437 58.6823 -0.993567 98.8679 56.5917 98.8679C114.177 98.8679 98.6724 57.936 79.001 36.9133ZM54.1457 56.5C52.897 56.5 51.6994 56.9961 50.8164 57.879C49.9334 58.762 49.4374 59.9596 49.4374 61.2083C49.4374 62.4571 49.9334 63.6546 50.8164 64.5376C51.6994 65.4206 52.897 65.9167 54.1457 65.9167V56.5ZM58.8541 51.7917V49.4375H54.1457V51.7917C51.6483 51.7917 49.2531 52.7838 47.4871 54.5497C45.7212 56.3157 44.7291 58.7109 44.7291 61.2083C44.7291 63.7058 45.7212 66.101 47.4871 67.8669C49.2531 69.6329 51.6483 70.625 54.1457 70.625V80.0417C52.0976 80.0417 50.3532 78.7351 49.7034 76.9036C49.607 76.6039 49.4515 76.3266 49.2461 76.0881C49.0406 75.8496 48.7895 75.6548 48.5074 75.515C48.2253 75.3753 47.9181 75.2936 47.6039 75.2746C47.2897 75.2557 46.9749 75.3 46.6781 75.4048C46.3813 75.5097 46.1086 75.673 45.876 75.8851C45.6434 76.0972 45.4557 76.3538 45.3241 76.6398C45.1924 76.9257 45.1194 77.2351 45.1094 77.5497C45.0994 77.8643 45.1526 78.1777 45.2658 78.4714C45.9149 80.3078 47.1174 81.8978 48.7078 83.0222C50.2981 84.1467 52.198 84.7503 54.1457 84.75V87.1042H58.8541V84.75C61.3515 84.75 63.7467 83.7579 65.5126 81.9919C67.2786 80.226 68.2707 77.8308 68.2707 75.3333C68.2707 72.8359 67.2786 70.4407 65.5126 68.6747C63.7467 66.9088 61.3515 65.9167 58.8541 65.9167V56.5C60.9022 56.5 62.6466 57.8066 63.2964 59.6381C63.3928 59.9378 63.5483 60.215 63.7537 60.4535C63.9591 60.692 64.2103 60.8869 64.4924 61.0266C64.7744 61.1664 65.0817 61.2481 65.3959 61.267C65.7101 61.286 66.0249 61.2417 66.3217 61.1368C66.6185 61.032 66.8912 60.8687 67.1238 60.6565C67.3564 60.4444 67.544 60.1878 67.6757 59.9019C67.8074 59.616 67.8804 59.3066 67.8904 58.992C67.9004 58.6774 67.8472 58.3639 67.734 58.0702C67.0849 56.2338 65.8824 54.6439 64.292 53.5195C62.7017 52.395 60.8018 51.7914 58.8541 51.7917ZM58.8541 70.625V80.0417C60.1028 80.0417 61.3004 79.5456 62.1833 78.6626C63.0663 77.7797 63.5624 76.5821 63.5624 75.3333C63.5624 74.0846 63.0663 72.887 62.1833 72.004C61.3004 71.1211 60.1028 70.625 58.8541 70.625Z" fill="black"/>
</svg>
