<svg width="111" height="111" viewBox="0 0 111 111" fill="none" xmlns="http://www.w3.org/2000/svg">
<g clip-path="url(#clip0_80_418)">
<path d="M109.682 62.4375L92.5464 28.2356L98.3045 27.195C98.7854 27.1405 99.2501 26.9877 99.6695 26.7461C100.089 26.5045 100.454 26.1792 100.743 25.7905C101.031 25.4018 101.237 24.958 101.346 24.4865C101.456 24.0151 101.468 23.5261 101.38 23.05C101.293 22.5739 101.109 22.1208 100.839 21.7188C100.57 21.3169 100.22 20.9747 99.8126 20.7134C99.4051 20.4522 98.9483 20.2776 98.4704 20.2003C97.9926 20.1231 97.504 20.1449 97.0349 20.2644L91.6445 21.2357C83.2482 14.8659 72.7365 11.9426 62.2572 13.0633C62.1204 11.384 61.3522 9.81888 60.1073 8.68343C58.8624 7.54799 57.2335 6.92659 55.5487 6.94444H55.4932C53.6532 6.94444 51.8886 7.67535 50.5876 8.97638C49.2866 10.2774 48.5557 12.042 48.5557 13.8819V15.2694C42.8499 16.367 37.4186 18.5859 32.5765 21.7976C27.7345 25.0094 23.578 29.1501 20.3478 33.9799L15.1169 35.0413C14.6414 35.0567 14.1741 35.1691 13.7437 35.3717C13.3133 35.5742 12.9288 35.8627 12.6139 36.2192C12.299 36.5758 12.0604 36.993 11.9126 37.4452C11.7649 37.8974 11.7111 38.375 11.7547 38.8487C11.7983 39.3225 11.9383 39.7823 12.1661 40.1999C12.3938 40.6175 12.7046 40.9842 13.0793 41.2773C13.4539 41.5705 13.8846 41.7839 14.3447 41.9046C14.8049 42.0252 15.2849 42.0505 15.7552 41.9788H16.3657L18.7938 41.6319L1.31129 76.3194H-0.00683594C-0.00683594 83.9507 9.28941 90.1944 20.8057 90.1944C32.3219 90.1944 41.6182 83.9507 41.6182 76.3194H40.3L22.54 40.7994H23.2338C23.8078 40.6991 24.3482 40.4585 24.8069 40.0991C25.2656 39.7396 25.6284 39.2724 25.8631 38.739C26.0088 38.0938 30.7263 27.7569 48.5557 22.3457V97.1319H41.6182V104.069H27.7432V111.007H83.2432V104.069H69.3682V97.1319H62.4307V19.9869C66.9735 19.3146 71.6078 19.6264 76.0197 20.9011C80.4316 22.1758 84.5181 24.3838 88.0023 27.3754L87.9607 27.3407L70.6863 62.4444H69.3682C69.3682 70.0757 78.6644 76.3194 90.1807 76.3194C101.697 76.3194 110.993 70.0757 110.993 62.4444L109.682 62.4375ZM34.6876 76.3125H6.9376L20.8126 48.9787L34.6876 76.3125ZM76.3126 62.4375L90.1876 35.1037L104.063 62.4375H76.3126Z" fill="black"/>
</g>
<defs>
<clipPath id="clip0_80_418">
<rect width="111" height="111" fill="white"/>
</clipPath>
</defs>
</svg>
