<svg width="115" height="115" viewBox="0 0 115 115" fill="none" xmlns="http://www.w3.org/2000/svg">
<path d="M81.875 28.1667V18.5833H43.5417V28.1667M38.75 85.6667C33.4792 85.6667 29.1667 89.9792 29.1667 95.25C29.1667 100.521 33.4792 104.833 38.75 104.833C44.0208 104.833 48.3333 100.521 48.3333 95.25C48.3333 89.9792 44.0208 85.6667 38.75 85.6667ZM86.6667 85.6667C81.3958 85.6667 77.0833 89.9792 77.0833 95.25C77.0833 100.521 81.3958 104.833 86.6667 104.833C91.9375 104.833 96.25 100.521 96.25 95.25C96.25 89.9792 91.9375 85.6667 86.6667 85.6667ZM39.7083 70.3333V69.8542L44.0208 61.7083H79.4792C82.8333 61.7083 86.1875 59.7917 87.625 56.9167L106.312 23.375L98.1667 18.5833L79.4792 52.125H45.9375L25.8125 9H10V18.5833H19.5833L36.8333 55L30.125 66.5C29.6458 67.9375 29.1667 69.375 29.1667 71.2917C29.1667 76.5625 33.4792 80.875 38.75 80.875H96.25V71.2917H40.6667C40.1875 71.2917 39.7083 70.8125 39.7083 70.3333Z" fill="black"/>
</svg>
